<mxfile host="Electron" agent="Mozilla/5.0 (X11; Linux x86_64) AppleWebKit/537.36 (KHTML, like Gecko) draw.io/26.0.3 Chrome/130.0.6723.137 Electron/33.2.1 Safari/537.36" version="26.0.3">
  <diagram id="C5RBs43oDa-KdzZeNtuy" name="Page-1">
    <mxGraphModel dx="2876" dy="2413" grid="1" gridSize="10" guides="1" tooltips="1" connect="1" arrows="1" fold="1" page="1" pageScale="1" pageWidth="827" pageHeight="1169" math="0" shadow="0">
      <root>
        <mxCell id="WIyWlLk6GJQsqaUBKTNV-0" />
        <mxCell id="WIyWlLk6GJQsqaUBKTNV-1" parent="WIyWlLk6GJQsqaUBKTNV-0" />
        <mxCell id="q-vTbzpSIonHLB1bR6pA-41" value="" style="rounded=0;whiteSpace=wrap;html=1;" vertex="1" parent="WIyWlLk6GJQsqaUBKTNV-1">
          <mxGeometry x="-580" y="-160" width="1920" height="280" as="geometry" />
        </mxCell>
        <mxCell id="q-vTbzpSIonHLB1bR6pA-8" style="edgeStyle=orthogonalEdgeStyle;rounded=0;orthogonalLoop=1;jettySize=auto;html=1;exitX=1;exitY=0.5;exitDx=0;exitDy=0;entryX=0;entryY=0.5;entryDx=0;entryDy=0;" edge="1" parent="WIyWlLk6GJQsqaUBKTNV-1" source="q-vTbzpSIonHLB1bR6pA-0" target="q-vTbzpSIonHLB1bR6pA-1">
          <mxGeometry relative="1" as="geometry" />
        </mxCell>
        <mxCell id="q-vTbzpSIonHLB1bR6pA-0" value="Develop" style="rounded=1;whiteSpace=wrap;html=1;fontSize=12;glass=0;strokeWidth=1;shadow=0;" vertex="1" parent="WIyWlLk6GJQsqaUBKTNV-1">
          <mxGeometry x="-190" y="-10" width="120" height="40" as="geometry" />
        </mxCell>
        <mxCell id="q-vTbzpSIonHLB1bR6pA-10" style="edgeStyle=orthogonalEdgeStyle;rounded=0;orthogonalLoop=1;jettySize=auto;html=1;exitX=1;exitY=0.5;exitDx=0;exitDy=0;" edge="1" parent="WIyWlLk6GJQsqaUBKTNV-1" source="q-vTbzpSIonHLB1bR6pA-1" target="q-vTbzpSIonHLB1bR6pA-2">
          <mxGeometry relative="1" as="geometry" />
        </mxCell>
        <mxCell id="q-vTbzpSIonHLB1bR6pA-1" value="Commit changes" style="rounded=1;whiteSpace=wrap;html=1;fontSize=12;glass=0;strokeWidth=1;shadow=0;" vertex="1" parent="WIyWlLk6GJQsqaUBKTNV-1">
          <mxGeometry x="-16" y="-10" width="120" height="40" as="geometry" />
        </mxCell>
        <mxCell id="q-vTbzpSIonHLB1bR6pA-12" style="edgeStyle=orthogonalEdgeStyle;rounded=0;orthogonalLoop=1;jettySize=auto;html=1;exitX=1;exitY=0.5;exitDx=0;exitDy=0;" edge="1" parent="WIyWlLk6GJQsqaUBKTNV-1" source="q-vTbzpSIonHLB1bR6pA-2" target="q-vTbzpSIonHLB1bR6pA-3">
          <mxGeometry relative="1" as="geometry" />
        </mxCell>
        <mxCell id="q-vTbzpSIonHLB1bR6pA-2" value="Trigger DevOps pipeline" style="rounded=1;whiteSpace=wrap;html=1;fontSize=12;glass=0;strokeWidth=1;shadow=0;" vertex="1" parent="WIyWlLk6GJQsqaUBKTNV-1">
          <mxGeometry x="160" y="-10" width="120" height="40" as="geometry" />
        </mxCell>
        <mxCell id="q-vTbzpSIonHLB1bR6pA-17" style="edgeStyle=orthogonalEdgeStyle;rounded=0;orthogonalLoop=1;jettySize=auto;html=1;exitX=1;exitY=0.5;exitDx=0;exitDy=0;" edge="1" parent="WIyWlLk6GJQsqaUBKTNV-1" source="q-vTbzpSIonHLB1bR6pA-3" target="q-vTbzpSIonHLB1bR6pA-16">
          <mxGeometry relative="1" as="geometry" />
        </mxCell>
        <mxCell id="q-vTbzpSIonHLB1bR6pA-3" value="Trigger DataOps pipeline" style="rounded=1;whiteSpace=wrap;html=1;fontSize=12;glass=0;strokeWidth=1;shadow=0;" vertex="1" parent="WIyWlLk6GJQsqaUBKTNV-1">
          <mxGeometry x="337" y="-10" width="120" height="40" as="geometry" />
        </mxCell>
        <mxCell id="q-vTbzpSIonHLB1bR6pA-35" style="edgeStyle=orthogonalEdgeStyle;rounded=0;orthogonalLoop=1;jettySize=auto;html=1;exitX=1;exitY=0.5;exitDx=0;exitDy=0;entryX=0;entryY=0.5;entryDx=0;entryDy=0;" edge="1" parent="WIyWlLk6GJQsqaUBKTNV-1" source="q-vTbzpSIonHLB1bR6pA-6" target="q-vTbzpSIonHLB1bR6pA-33">
          <mxGeometry relative="1" as="geometry" />
        </mxCell>
        <mxCell id="q-vTbzpSIonHLB1bR6pA-6" value="Monitor and Feedback" style="rounded=1;whiteSpace=wrap;html=1;fontSize=12;glass=0;strokeWidth=1;shadow=0;" vertex="1" parent="WIyWlLk6GJQsqaUBKTNV-1">
          <mxGeometry x="-540" y="-10" width="120" height="40" as="geometry" />
        </mxCell>
        <mxCell id="q-vTbzpSIonHLB1bR6pA-14" style="edgeStyle=orthogonalEdgeStyle;rounded=0;orthogonalLoop=1;jettySize=auto;html=1;exitX=0.5;exitY=1;exitDx=0;exitDy=0;entryX=0.5;entryY=0;entryDx=0;entryDy=0;" edge="1" parent="WIyWlLk6GJQsqaUBKTNV-1" source="q-vTbzpSIonHLB1bR6pA-13" target="q-vTbzpSIonHLB1bR6pA-3">
          <mxGeometry relative="1" as="geometry" />
        </mxCell>
        <mxCell id="q-vTbzpSIonHLB1bR6pA-13" value="New Data available" style="rounded=1;whiteSpace=wrap;html=1;fontSize=12;glass=0;strokeWidth=1;shadow=0;" vertex="1" parent="WIyWlLk6GJQsqaUBKTNV-1">
          <mxGeometry x="337" y="-90" width="120" height="40" as="geometry" />
        </mxCell>
        <mxCell id="q-vTbzpSIonHLB1bR6pA-21" style="edgeStyle=orthogonalEdgeStyle;rounded=0;orthogonalLoop=1;jettySize=auto;html=1;exitX=1;exitY=0.5;exitDx=0;exitDy=0;entryX=0;entryY=0.5;entryDx=0;entryDy=0;" edge="1" parent="WIyWlLk6GJQsqaUBKTNV-1" source="q-vTbzpSIonHLB1bR6pA-16" target="q-vTbzpSIonHLB1bR6pA-19">
          <mxGeometry relative="1" as="geometry" />
        </mxCell>
        <mxCell id="q-vTbzpSIonHLB1bR6pA-16" value="Trigger MLOps pipeline" style="rounded=1;whiteSpace=wrap;html=1;fontSize=12;glass=0;strokeWidth=1;shadow=0;" vertex="1" parent="WIyWlLk6GJQsqaUBKTNV-1">
          <mxGeometry x="510" y="-10" width="120" height="40" as="geometry" />
        </mxCell>
        <mxCell id="q-vTbzpSIonHLB1bR6pA-25" style="edgeStyle=orthogonalEdgeStyle;rounded=0;orthogonalLoop=1;jettySize=auto;html=1;exitX=1;exitY=0.5;exitDx=0;exitDy=0;entryX=0;entryY=0.5;entryDx=0;entryDy=0;" edge="1" parent="WIyWlLk6GJQsqaUBKTNV-1" source="q-vTbzpSIonHLB1bR6pA-19" target="q-vTbzpSIonHLB1bR6pA-24">
          <mxGeometry relative="1" as="geometry" />
        </mxCell>
        <mxCell id="q-vTbzpSIonHLB1bR6pA-28" value="yes" style="edgeLabel;html=1;align=center;verticalAlign=middle;resizable=0;points=[];" vertex="1" connectable="0" parent="q-vTbzpSIonHLB1bR6pA-25">
          <mxGeometry x="0.0635" y="-3" relative="1" as="geometry">
            <mxPoint y="-15" as="offset" />
          </mxGeometry>
        </mxCell>
        <mxCell id="q-vTbzpSIonHLB1bR6pA-32" style="edgeStyle=orthogonalEdgeStyle;rounded=0;orthogonalLoop=1;jettySize=auto;html=1;exitX=0.5;exitY=0;exitDx=0;exitDy=0;entryX=0.25;entryY=0;entryDx=0;entryDy=0;" edge="1" parent="WIyWlLk6GJQsqaUBKTNV-1" source="q-vTbzpSIonHLB1bR6pA-19" target="q-vTbzpSIonHLB1bR6pA-6">
          <mxGeometry relative="1" as="geometry">
            <Array as="points">
              <mxPoint x="720" y="-100" />
              <mxPoint x="-510" y="-100" />
            </Array>
          </mxGeometry>
        </mxCell>
        <mxCell id="q-vTbzpSIonHLB1bR6pA-43" value="no" style="edgeLabel;html=1;align=center;verticalAlign=middle;resizable=0;points=[];" vertex="1" connectable="0" parent="q-vTbzpSIonHLB1bR6pA-32">
          <mxGeometry x="-0.9587" relative="1" as="geometry">
            <mxPoint as="offset" />
          </mxGeometry>
        </mxCell>
        <mxCell id="q-vTbzpSIonHLB1bR6pA-19" value="Validate&amp;nbsp;&lt;div&gt;Model&lt;/div&gt;" style="rhombus;whiteSpace=wrap;html=1;shadow=0;fontFamily=Helvetica;fontSize=12;align=center;strokeWidth=1;spacing=6;spacingTop=-4;" vertex="1" parent="WIyWlLk6GJQsqaUBKTNV-1">
          <mxGeometry x="670" y="-30" width="100" height="80" as="geometry" />
        </mxCell>
        <mxCell id="q-vTbzpSIonHLB1bR6pA-29" style="edgeStyle=orthogonalEdgeStyle;rounded=0;orthogonalLoop=1;jettySize=auto;html=1;exitX=1;exitY=0.5;exitDx=0;exitDy=0;entryX=0;entryY=0.5;entryDx=0;entryDy=0;" edge="1" parent="WIyWlLk6GJQsqaUBKTNV-1" source="q-vTbzpSIonHLB1bR6pA-24" target="q-vTbzpSIonHLB1bR6pA-27">
          <mxGeometry relative="1" as="geometry" />
        </mxCell>
        <mxCell id="q-vTbzpSIonHLB1bR6pA-24" value="Release Model and Metadata" style="rounded=1;whiteSpace=wrap;html=1;fontSize=12;glass=0;strokeWidth=1;shadow=0;" vertex="1" parent="WIyWlLk6GJQsqaUBKTNV-1">
          <mxGeometry x="840" y="-10" width="120" height="40" as="geometry" />
        </mxCell>
        <mxCell id="q-vTbzpSIonHLB1bR6pA-39" style="edgeStyle=orthogonalEdgeStyle;rounded=0;orthogonalLoop=1;jettySize=auto;html=1;exitX=1;exitY=0.5;exitDx=0;exitDy=0;entryX=0;entryY=0.5;entryDx=0;entryDy=0;" edge="1" parent="WIyWlLk6GJQsqaUBKTNV-1" source="q-vTbzpSIonHLB1bR6pA-27" target="q-vTbzpSIonHLB1bR6pA-38">
          <mxGeometry relative="1" as="geometry" />
        </mxCell>
        <mxCell id="q-vTbzpSIonHLB1bR6pA-27" value="Push application config changes to git" style="rounded=1;whiteSpace=wrap;html=1;fontSize=12;glass=0;strokeWidth=1;shadow=0;" vertex="1" parent="WIyWlLk6GJQsqaUBKTNV-1">
          <mxGeometry x="1010" y="-10" width="120" height="40" as="geometry" />
        </mxCell>
        <mxCell id="q-vTbzpSIonHLB1bR6pA-36" style="edgeStyle=orthogonalEdgeStyle;rounded=0;orthogonalLoop=1;jettySize=auto;html=1;exitX=1;exitY=0.5;exitDx=0;exitDy=0;entryX=0;entryY=0.5;entryDx=0;entryDy=0;" edge="1" parent="WIyWlLk6GJQsqaUBKTNV-1" source="q-vTbzpSIonHLB1bR6pA-33" target="q-vTbzpSIonHLB1bR6pA-0">
          <mxGeometry relative="1" as="geometry" />
        </mxCell>
        <mxCell id="q-vTbzpSIonHLB1bR6pA-37" style="edgeStyle=orthogonalEdgeStyle;rounded=0;orthogonalLoop=1;jettySize=auto;html=1;exitX=0.5;exitY=0;exitDx=0;exitDy=0;entryX=0;entryY=0.5;entryDx=0;entryDy=0;" edge="1" parent="WIyWlLk6GJQsqaUBKTNV-1" source="q-vTbzpSIonHLB1bR6pA-33" target="q-vTbzpSIonHLB1bR6pA-13">
          <mxGeometry relative="1" as="geometry" />
        </mxCell>
        <mxCell id="q-vTbzpSIonHLB1bR6pA-33" value="Dev / Data" style="rhombus;whiteSpace=wrap;html=1;shadow=0;fontFamily=Helvetica;fontSize=12;align=center;strokeWidth=1;spacing=6;spacingTop=-4;" vertex="1" parent="WIyWlLk6GJQsqaUBKTNV-1">
          <mxGeometry x="-370" y="-30" width="100" height="80" as="geometry" />
        </mxCell>
        <mxCell id="q-vTbzpSIonHLB1bR6pA-40" style="edgeStyle=orthogonalEdgeStyle;rounded=0;orthogonalLoop=1;jettySize=auto;html=1;exitX=0.5;exitY=1;exitDx=0;exitDy=0;entryX=0.5;entryY=1;entryDx=0;entryDy=0;" edge="1" parent="WIyWlLk6GJQsqaUBKTNV-1" source="q-vTbzpSIonHLB1bR6pA-38" target="q-vTbzpSIonHLB1bR6pA-6">
          <mxGeometry relative="1" as="geometry">
            <Array as="points">
              <mxPoint x="1240" y="60" />
              <mxPoint x="-480" y="60" />
            </Array>
          </mxGeometry>
        </mxCell>
        <mxCell id="q-vTbzpSIonHLB1bR6pA-38" value="sync and deploy application" style="rounded=1;whiteSpace=wrap;html=1;fontSize=12;glass=0;strokeWidth=1;shadow=0;" vertex="1" parent="WIyWlLk6GJQsqaUBKTNV-1">
          <mxGeometry x="1180.5" y="-10" width="120" height="40" as="geometry" />
        </mxCell>
      </root>
    </mxGraphModel>
  </diagram>
</mxfile>
